<?xml version="1.0" encoding="utf-8"?>
<!-- Generator: Adobe Illustrator 19.2.1, SVG Export Plug-In . SVG Version: 6.00 Build 0)  -->
<svg version="1.1" id="Layer_1" xmlns="http://www.w3.org/2000/svg" xmlns:xlink="http://www.w3.org/1999/xlink" x="0px" y="0px"
	 viewBox="0 0 100 100" style="enable-background:new 0 0 100 100;" xml:space="preserve">
<style type="text/css">
	.st0{fill-rule:evenodd;clip-rule:evenodd;fill:#3C3F84;}
</style>
<g>
	<path class="st0" d="M70.4,34.6c-0.5-1.2-1-2.1-2-3c-0.9-0.9-1.8-1.5-3-2c-0.9-0.4-2.3-0.8-4.9-0.9c-2.8-0.1-3.6-0.2-10.6-0.2
		c-7,0-7.8,0-10.6,0.2c-2.6,0.1-3.9,0.5-4.9,0.9c-1.2,0.5-2.1,1-3,2c-0.9,0.9-1.5,1.8-2,3c-0.4,0.9-0.8,2.3-0.9,4.9
		c-0.1,2.8-0.2,3.6-0.2,10.6c0,7,0,7.8,0.2,10.6c0.1,2.6,0.5,3.9,0.9,4.9c0.5,1.2,1,2.1,2,3c0.9,0.9,1.8,1.5,3,2
		c0.9,0.4,2.3,0.8,4.9,0.9c2.8,0.1,3.6,0.2,10.6,0.2c7,0,7.8,0,10.6-0.2c2.6-0.1,3.9-0.5,4.9-0.9c1.2-0.5,2.1-1,3-2
		c0.9-0.9,1.5-1.8,2-3c0.4-0.9,0.8-2.3,0.9-4.9c0.1-2.8,0.2-3.6,0.2-10.6c0-7,0-7.8-0.2-10.6C71.2,36.9,70.8,35.5,70.4,34.6z
		 M50,63.5c-7.4,0-13.5-6-13.5-13.5c0-7.4,6-13.5,13.5-13.5c7.4,0,13.5,6,13.5,13.5C63.5,57.4,57.4,63.5,50,63.5z M64,39.2
		c-1.7,0-3.1-1.4-3.1-3.1s1.4-3.1,3.1-3.1c1.7,0,3.1,1.4,3.1,3.1S65.7,39.2,64,39.2z"/>
	<circle class="st0" cx="50" cy="50" r="8.7"/>
	<path class="st0" d="M50,0C22.4,0,0,22.4,0,50c0,27.6,22.4,50,50,50c27.6,0,50-22.4,50-50C100,22.4,77.6,0,50,0z M76,60.8
		c-0.1,2.8-0.6,4.7-1.2,6.4c-0.7,1.7-1.6,3.2-3,4.6c-1.5,1.5-2.9,2.4-4.6,3c-1.7,0.6-3.6,1.1-6.4,1.2c-2.8,0.1-3.7,0.2-10.8,0.2
		c-7.1,0-8,0-10.8-0.2c-2.8-0.1-4.7-0.6-6.4-1.2c-1.7-0.7-3.2-1.6-4.6-3c-1.5-1.5-2.4-2.9-3-4.6c-0.6-1.7-1.1-3.6-1.2-6.4
		c-0.1-2.8-0.2-3.7-0.2-10.8c0-7.1,0-8,0.2-10.8c0.1-2.8,0.6-4.7,1.2-6.4c0.7-1.7,1.6-3.2,3-4.6c1.5-1.5,2.9-2.4,4.6-3
		c1.7-0.6,3.6-1.1,6.4-1.2c2.8-0.1,3.7-0.2,10.8-0.2c7.1,0,8,0,10.8,0.2c2.8,0.1,4.7,0.6,6.4,1.2c1.7,0.7,3.2,1.6,4.6,3
		s2.4,2.9,3,4.6c0.6,1.7,1.1,3.6,1.2,6.4c0.1,2.8,0.2,3.7,0.2,10.8C76.2,57.1,76.2,58,76,60.8z"/>
</g>
</svg>
