<?xml version="1.0" encoding="utf-8"?>
<!-- Generator: Adobe Illustrator 19.2.1, SVG Export Plug-In . SVG Version: 6.00 Build 0)  -->
<svg version="1.1" id="Layer_1" xmlns="http://www.w3.org/2000/svg" xmlns:xlink="http://www.w3.org/1999/xlink" x="0px" y="0px"
	 viewBox="0 0 100 100" style="enable-background:new 0 0 100 100;" xml:space="preserve">
<style type="text/css">
	.st0{fill-rule:evenodd;clip-rule:evenodd;}
</style>
<path class="st0" d="M50,0C22.4,0,0,22.4,0,50c0,27.6,22.4,50,50,50c27.6,0,50-22.4,50-50C100,22.4,77.6,0,50,0z M72.9,67.1
	l-7.6,0.1c0,0-1.6,0.3-3.8-1.2c-2.8-2-5.5-7-7.6-6.4c-2.1,0.7-2.1,5.2-2.1,5.2s0,1-0.5,1.5c-0.5,0.6-1.6,0.7-1.6,0.7h-3.4
	c0,0-7.5,0.5-14.1-6.4C25,53.2,18.7,38.2,18.7,38.2s-0.4-1,0-1.5c0.4-0.5,1.7-0.6,1.7-0.6l8.1-0.1c0,0,0.8,0.1,1.3,0.5
	c0.5,0.3,0.7,1,0.7,1s1.3,3.3,3.1,6.3c3.4,5.9,5,7.2,6.1,6.5c1.7-0.9,1.2-8.3,1.2-8.3s0-2.7-0.8-3.9c-0.7-0.9-2-1.2-2.5-1.3
	c-0.5-0.1,0.3-1.1,1.3-1.6c1.5-0.7,4.1-0.8,7.1-0.7c2.4,0,3.1,0.2,4,0.4c2.8,0.7,1.9,3.3,1.9,9.6c0,2-0.4,4.8,1.1,5.8
	c0.6,0.4,2.1,0.1,6-6.4c1.8-3.1,3.2-6.7,3.2-6.7s0.3-0.6,0.8-0.9c0.5-0.3,1.1-0.2,1.1-0.2l8.6-0.1c0,0,2.6-0.3,3,0.9
	c0.4,1.2-1,4.1-4.5,8.7c-5.7,7.7-6.4,6.9-1.6,11.4c4.6,4.2,5.5,6.3,5.7,6.5C76.9,66.9,72.9,67.1,72.9,67.1z"/>
</svg>
